<!DOCTYPE svg PUBLIC "-//W3C//DTD SVG 1.1//EN" "http://www.w3.org/Graphics/SVG/1.1/DTD/svg11.dtd">
<!-- Uploaded to: SVG Repo, www.svgrepo.com, Transformed by: SVG Repo Mixer Tools -->
<svg fill="#ffffff" height="800px" width="800px" version="1.1" id="Layer_1" xmlns="http://www.w3.org/2000/svg" xmlns:xlink="http://www.w3.org/1999/xlink" viewBox="0 0 503.894 503.894" xml:space="preserve" stroke="#ffffff">
<g id="SVGRepo_bgCarrier" stroke-width="0"/>
<g id="SVGRepo_tracerCarrier" stroke-linecap="round" stroke-linejoin="round"/>
<g id="SVGRepo_iconCarrier"> <g transform="translate(0 -1)"> <g> <g> <path d="M377.709,477.896c-0.109-0.562-10.458-56.186-16.862-84.27v0.008c-6.06-26.641-27.682-169.396-8.679-221.914 c20.279-56.051,4.062-104.893-6.152-127.018l-4.197,4.197c-17.005,17.005-58.88,18.986-88.979,18.986h-0.151h-1.477h-0.159 c-30.099,0-71.974-1.981-88.97-18.986c-0.285-0.277-0.546-0.579-0.781-0.898l-3.064-4.088 c-10.425,22.461-26.876,71.504-6.513,127.807c19.003,52.518-2.61,195.273-8.679,221.906 c-6.404,28.084-16.753,83.708-16.862,84.27c-0.571,3.08,0.63,6.22,3.097,8.15c25.054,19.565,77.748,30.309,111.532-0.403 c1.889-1.721,2.896-4.214,2.728-6.773c-0.084-1.251-8.377-126.011-8.377-158.921c0-17.156,7.319-54.868,13.765-88.123 c1.032-5.338,2.048-10.559,3.022-15.603c0.965,5.044,1.981,10.265,3.013,15.603c6.455,33.255,13.774,70.967,13.774,88.123 c0,32.911-8.301,157.671-8.377,158.921c-0.176,2.56,0.831,5.053,2.728,6.773c15.201,13.816,34.245,19.238,52.87,19.238 c22.746,0,44.88-8.083,58.662-18.835C377.088,484.116,378.279,480.976,377.709,477.896z M280.882,159.592 c-3.097,1.553-19.062,9.275-28.932,9.275c-9.879,0-25.835-7.722-28.941-9.275c-4.146-2.073-5.825-7.118-3.752-11.264 c2.065-4.138,7.126-5.808,11.264-3.752c6.068,3.022,17.072,7.504,21.428,7.504c4.373,0,15.368-4.482,21.42-7.504 c4.155-2.056,9.182-0.403,11.264,3.752C286.707,152.474,285.028,157.518,280.882,159.592z"/> <path d="M251.083,51.1h0.126h1.477h0.134c41.85,0,67.794-4.734,77.127-14.067l8.536-8.536 c-2.837-5.859-6.815-13.656-12.087-22.973c-1.486-2.619-4.255-4.255-7.269-4.264L251.914,1l-67.148,0.26 c-3.013,0.008-5.783,1.645-7.269,4.264c-4.759,8.41-8.452,15.57-11.205,21.168l8.041,10.718 C183.985,46.492,209.804,51.1,251.083,51.1z"/> </g> </g> </g> </g>
</svg>