<?xml version="1.0" encoding="iso-8859-1"?>
<!-- Uploaded to: SVG Repo, www.svgrepo.com, Generator: SVG Repo Mixer Tools -->
<!DOCTYPE svg PUBLIC "-//W3C//DTD SVG 1.1//EN" "http://www.w3.org/Graphics/SVG/1.1/DTD/svg11.dtd">
<svg fill="#000000" height="800px" width="800px" version="1.1" id="Capa_1" xmlns="http://www.w3.org/2000/svg" xmlns:xlink="http://www.w3.org/1999/xlink" 
	 viewBox="0 0 483.254 483.254" xml:space="preserve">
<path d="M371.794,424.234c-4.901-17.76-12.308-44.598-18.018-77.88c-7.24-42.103-39.51-150.343-43.68-157.969l-17.458-35.088
	c-0.506-5.748,1.131-11.48,4.996-17.507c26.031-40.577,14.906-68.882,10.677-76.879c-0.914-2.149-4.844-7.148-18.572-23.456
	c-9.146-10.863-18.47-21.692-18.589-21.83C263.341,4.839,252.855,0,241.625,0s-21.716,4.839-29.552,13.655
	c-0.093,0.108-9.417,10.938-18.563,21.801c-13.727,16.306-17.657,21.305-18.571,23.456c-4.229,7.995-15.355,36.3,10.677,76.879
	c3.859,6.017,5.497,11.738,4.999,17.477l-18.696,35.441c-0.767,1.145-2.03,4.003-5.154,12.119
	c-1.885,4.894-5.709,15.088-10.15,28.373c-6.768,20.243-15.459,49.111-18.429,71.673c-5.655,42.792-7.533,52.376-12.506,71.777
	c-1.833,7.16-4.169,15.304-6.428,23.181c-4.146,14.449-8.06,28.098-8.964,35.728c-0.399,3.323-0.609,6.149-0.795,8.644
	c-0.442,5.946-0.73,8.862-2.418,10.129c-1.808,1.349-1.446,3.022-1.293,3.503c0.473,1.476,1.179,3.682,19.092,4.203
	c0.313,1.339,0.494,3.357-0.651,4.87c-0.646,0.868-0.78,1.964-0.36,2.931c1.107,2.553,4.757,3.175,22.888,5.217
	c13.434,1.514,31.831,3.586,36.64,7.016c6.554,4.678,20.641,5.183,26.393,5.183c9.789,0,23.145-1.354,28.57-5.173
	c4.247-2.988,8.059-4.397,10.472-5.051v6.843l1.932,0.451c0.369,0.086,9.173,2.112,20.312,2.112c11.232,0,20.64-2.038,27.96-6.058
	c1.438-0.791,3.408-1.875,5.626-22.475c1.222-11.353,2.296-26.65,3.107-44.241c1.65-35.798,1.764-70.905,0.276-85.376
	c-3.773-36.695-13.132-68.505-18.723-87.511c-1.328-4.513-0.152-7.012,1.852-3.285c9.116,16.957,22.16,49.337,26.322,89.825
	c3.025,29.433,8.847,96.335,12.045,133.564c0.661,8.971,6.794,11.341,9.944,11.341l0.146-0.002c1.199-0.025,2.354-0.045,3.452-0.063
	c3.358-0.057,6.26-0.105,8.474-0.313c4.977-0.474,7.58-1.447,8.986-3.363c1.281-1.746,1.135-3.717,0.763-5.678
	c4.291-0.424,11.936-1.672,15.133-5.273C378.951,450.703,377.436,444.683,371.794,424.234z M222.279,19.775
	c5.19-5.84,12.062-9.056,19.346-9.056s14.155,3.216,19.353,9.063l34.796,38.809c-1.798,0.688-3.777,1.455-5.889,2.271
	c-15.051,5.825-40.241,15.574-48.26,15.574c-8.813,0-34.211-9.961-49.386-15.912c-1.709-0.671-3.322-1.303-4.809-1.882
	L222.279,19.775z"/>
</svg>