<svg xmlns="http://www.w3.org/2000/svg" xmlns:xlink="http://www.w3.org/1999/xlink" version="1.1" x="0px" y="0px" viewBox="0 0 62.8 125" style="enable-background:new 0 0 62.8 100;" xml:space="preserve"><circle cx="23" cy="20.2" r="5.8"/><path d="M62.4,95.3c-1.3-4.4-2.7-20.9-6-25.5l0-0.1l0-0.1c-0.8-8.2-2.2-21.8-4.3-26.1c-6.5-10.8-8.7-17.5-8.8-17.5  c-0.1-0.3-5-24.2-33.6-24.2c-0.7,0-8.3-3.7-9.5-0.8C0,1.6-0.1,2,0.1,2.2C1,3.6,5.8,3.5,9.9,4c14.6-0.3,23.8,12.3,22.9,17.6  c-0.4,3.1-10,7.3-11,8.9c-2.6,2.6-2.5,9.5-2.1,15.3c0.7,7.8,15.3,5.7,16,1.4c0-1.3-0.4-2-1.1-2.2c-2.4-0.4-2.3,2.8-4.3,2.1  c-2.1-0.7-5.4-1.8-5.6-1.9c0.6-2.2-0.3-7.1,0.7-8.3c0.3-0.3,0.6-0.2,0.8-0.2c0.3,3.5,4.8,6.6,5.7,8.6c0.5-0.6,1.1-1.1,2.2-1.1  c1-0.1,2.4,0.8,2.4,3.1c0,1.2-1.1,2.7-3.9,3.7c-0.7,2.5-5,17.2-4.2,20.9c-2.3,5-2.2,12.6-3.2,14.8c-2.2,4.4-4.4,7.3-6.5,9.5  c-2.3,2.5,0.8,3.9,2,3.9c1.9,0,4.7-3.2,5.1-3.6c0.1-0.4,1.5-5.7,2.1-6.9c3.9-4.5,6.6-9.6,6.5-13.4c0.8-3.6,7.8-15.1,8.7-19.7  c0.3-0.5,0.6-0.2,0.6-0.1c0.8,0.8,2.9,12.1,6.4,15.3l0.1,0.1l0,0.1c0.2,9.5,6.6,13.5,6.6,19.6c-0.7,5,0.8,7.5,2.9,8.4  C61.2,100.6,63.9,98.9,62.4,95.3z"/><text x="0" y="115" fill="#000000" font-size="5px" font-weight="bold" font-family="'Helvetica Neue', Helvetica, Arial-Unicode, Arial, Sans-serif">Created by Guilherme Silva Soares</text><text x="0" y="120" fill="#000000" font-size="5px" font-weight="bold" font-family="'Helvetica Neue', Helvetica, Arial-Unicode, Arial, Sans-serif">from the Noun Project</text></svg>